<svg width="31" height="30" viewBox="0 0 31 30" fill="none" xmlns="http://www.w3.org/2000/svg">
<rect x="0.719727" y="0.5" width="29" height="29" rx="14.5" stroke="#3B5999"/>
<g clip-path="url(#clip0_23_1752)">
<path d="M15.964 15.7061H17.732L18.4375 13.3751H15.964V12.2061C15.964 12.0054 15.9697 11.8608 15.981 11.7721C16.0093 11.6181 16.0603 11.4921 16.134 11.3941C16.2303 11.2821 16.372 11.1958 16.559 11.1351C16.7687 11.0698 17.0407 11.0371 17.375 11.0371H18.4375V9.07711C18.2845 9.06311 18.0352 9.04678 17.6895 9.02811C17.2475 9.00944 16.8225 9.00011 16.4145 9.00011C15.7685 9.00011 15.1976 9.10628 14.7018 9.31861C14.2059 9.53094 13.822 9.83778 13.55 10.2391C13.2667 10.6591 13.125 11.1584 13.125 11.7371V13.3751H11V15.7061H13.125V20.6621H15.964V15.7061Z" fill="#3B5999"/>
</g>
<defs>
<clipPath id="clip0_23_1752">
<rect width="7.4375" height="13.662" fill="white" transform="matrix(1 0 0 -1 11 21.6621)"/>
</clipPath>
</defs>
</svg>
