<svg width="24" height="25" viewBox="0 0 24 25" fill="none" xmlns="http://www.w3.org/2000/svg">
<path d="M9 3.7742H4C3.44772 3.7742 3 4.20747 3 4.74194V9.58065C3 10.1151 3.44772 10.5484 4 10.5484H9C9.55228 10.5484 10 10.1151 10 9.58065V4.74194C10 4.20747 9.55228 3.7742 9 3.7742Z" stroke="#071A35" stroke-width="2" stroke-linecap="round" stroke-linejoin="round"/>
<path d="M20 3.7742H15C14.4477 3.7742 14 4.20747 14 4.74194V9.58065C14 10.1151 14.4477 10.5484 15 10.5484H20C20.5523 10.5484 21 10.1151 21 9.58065V4.74194C21 4.20747 20.5523 3.7742 20 3.7742Z" stroke="#071A35" stroke-width="2" stroke-linecap="round" stroke-linejoin="round"/>
<path d="M20 14.4194H15C14.4477 14.4194 14 14.8526 14 15.3871V20.2258C14 20.7603 14.4477 21.1936 15 21.1936H20C20.5523 21.1936 21 20.7603 21 20.2258V15.3871C21 14.8526 20.5523 14.4194 20 14.4194Z" stroke="#071A35" stroke-width="2" stroke-linecap="round" stroke-linejoin="round"/>
<path d="M9 14.4194H4C3.44772 14.4194 3 14.8526 3 15.3871V20.2258C3 20.7603 3.44772 21.1936 4 21.1936H9C9.55228 21.1936 10 20.7603 10 20.2258V15.3871C10 14.8526 9.55228 14.4194 9 14.4194Z" stroke="#071A35" stroke-width="2" stroke-linecap="round" stroke-linejoin="round"/>
</svg>
