<svg width="31" height="30" viewBox="0 0 31 30" fill="none" xmlns="http://www.w3.org/2000/svg">
<rect x="0.719727" y="0.5" width="29" height="29" rx="14.5" stroke="#ADD7A5"/>
<g clip-path="url(#clip0_23_1755)">
<path d="M14.831 13.419C14.5137 13.419 14.2208 13.4972 13.9525 13.6535C13.6842 13.8098 13.4718 14.0222 13.3155 14.2905C13.1592 14.5588 13.081 14.8517 13.081 15.169C13.081 15.4863 13.1592 15.7792 13.3155 16.0475C13.4718 16.3158 13.6842 16.5282 13.9525 16.6845C14.2208 16.8408 14.5137 16.919 14.831 16.919C15.1483 16.919 15.4412 16.8408 15.7095 16.6845C15.9778 16.5282 16.1902 16.3158 16.3465 16.0475C16.5028 15.7792 16.581 15.4863 16.581 15.169C16.581 14.8517 16.5028 14.5588 16.3465 14.2905C16.1902 14.0222 15.9778 13.8098 15.7095 13.6535C15.4412 13.4972 15.1483 13.419 14.831 13.419ZM14.831 12.25C15.3537 12.25 15.8402 12.3807 16.2905 12.642C16.7408 12.9033 17.0967 13.2592 17.358 13.7095C17.6193 14.1598 17.75 14.6463 17.75 15.169C17.75 15.6917 17.6193 16.1782 17.358 16.6285C17.0967 17.0788 16.7408 17.4347 16.2905 17.696C15.8402 17.9573 15.3525 18.088 14.8275 18.088C14.3025 18.088 13.8137 17.955 13.361 17.689C12.9177 17.4323 12.5677 17.0823 12.311 16.639C12.045 16.1863 11.912 15.6963 11.912 15.169C11.912 14.6417 12.045 14.1517 12.311 13.699C12.5677 13.2557 12.9177 12.9057 13.361 12.649C13.8137 12.383 14.3037 12.25 14.831 12.25ZM18.625 12.103C18.625 12.3083 18.5538 12.4822 18.4115 12.6245C18.2692 12.7668 18.0965 12.838 17.8935 12.838C17.6905 12.838 17.5178 12.7668 17.3755 12.6245C17.2332 12.4822 17.162 12.3095 17.162 12.1065C17.162 11.9035 17.2332 11.7308 17.3755 11.5885C17.5178 11.4462 17.6905 11.375 17.8935 11.375C18.0965 11.375 18.2692 11.4462 18.4115 11.5885C18.5538 11.7308 18.625 11.9023 18.625 12.103ZM14.831 10.5C14.117 10.5 13.6293 10.5023 13.368 10.507C13.116 10.5117 12.8197 10.521 12.479 10.535C12.255 10.5443 12.0613 10.5653 11.898 10.598C11.7347 10.6307 11.5783 10.675 11.429 10.731C11.303 10.7777 11.191 10.8337 11.093 10.899C10.995 10.9643 10.897 11.0437 10.799 11.137C10.617 11.319 10.4817 11.529 10.393 11.767C10.337 11.9163 10.2927 12.0727 10.26 12.236C10.2273 12.3993 10.2063 12.593 10.197 12.817C10.183 13.1437 10.1737 13.433 10.169 13.685C10.1643 13.937 10.162 14.4317 10.162 15.169C10.162 15.883 10.1643 16.3707 10.169 16.632C10.1737 16.884 10.183 17.1803 10.197 17.521C10.2063 17.745 10.2273 17.9387 10.26 18.102C10.2927 18.2653 10.337 18.4193 10.393 18.564C10.4397 18.6947 10.4957 18.809 10.561 18.907C10.6263 19.005 10.7068 19.1018 10.8025 19.1975C10.8982 19.2932 10.995 19.3737 11.093 19.439C11.191 19.5043 11.303 19.5603 11.429 19.607C11.5783 19.663 11.7347 19.7073 11.898 19.74C12.0613 19.7727 12.255 19.7937 12.479 19.803C12.8057 19.817 13.095 19.8263 13.347 19.831C13.599 19.8357 14.0937 19.838 14.831 19.838C15.545 19.838 16.0327 19.8357 16.294 19.831C16.546 19.8263 16.8423 19.817 17.183 19.803C17.407 19.7937 17.6007 19.7727 17.764 19.74C17.9273 19.7073 18.0813 19.663 18.226 19.607C18.3567 19.5603 18.471 19.5043 18.569 19.439C18.667 19.3737 18.7638 19.2932 18.8595 19.1975C18.9552 19.1018 19.0357 19.005 19.101 18.907C19.1663 18.809 19.2223 18.697 19.269 18.571C19.325 18.4217 19.3693 18.2653 19.402 18.102C19.4347 17.9387 19.4557 17.745 19.465 17.521C19.479 17.1943 19.4883 16.905 19.493 16.653C19.4977 16.401 19.5 15.9063 19.5 15.169C19.5 14.455 19.4977 13.9673 19.493 13.706C19.4883 13.454 19.479 13.1577 19.465 12.817C19.4557 12.593 19.4347 12.3993 19.402 12.236C19.3693 12.0727 19.325 11.9163 19.269 11.767C19.1803 11.529 19.045 11.319 18.863 11.137C18.681 10.955 18.471 10.8197 18.233 10.731C18.0837 10.675 17.9273 10.6307 17.764 10.598C17.6007 10.5653 17.407 10.5443 17.183 10.535C16.8563 10.521 16.567 10.5117 16.315 10.507C16.063 10.5023 15.5683 10.5 14.831 10.5ZM14.831 9.338C15.5963 9.338 16.1167 9.34033 16.392 9.345C16.63 9.345 16.9123 9.35433 17.239 9.373C17.533 9.387 17.799 9.41733 18.037 9.464C18.2517 9.506 18.457 9.5655 18.653 9.6425C18.849 9.7195 19.0287 9.80933 19.192 9.912C19.3647 10.024 19.528 10.157 19.682 10.311C19.9853 10.6097 20.2117 10.955 20.361 11.347C20.4357 11.543 20.494 11.7483 20.536 11.963C20.5827 12.201 20.613 12.4693 20.627 12.768C20.6457 13.104 20.655 13.384 20.655 13.608C20.6597 13.902 20.662 14.4223 20.662 15.169C20.662 15.9343 20.6597 16.4547 20.655 16.73C20.655 16.968 20.6457 17.248 20.627 17.57C20.613 17.8687 20.5827 18.137 20.536 18.375C20.494 18.585 20.4357 18.7903 20.361 18.991C20.2117 19.383 19.9877 19.7283 19.689 20.027C19.3903 20.3257 19.045 20.5497 18.653 20.699C18.457 20.7737 18.2517 20.832 18.037 20.874C17.799 20.9207 17.533 20.951 17.239 20.965C16.8983 20.9837 16.616 20.993 16.392 20.993C16.098 20.9977 15.5777 21 14.831 21C14.0657 21 13.5453 20.9977 13.27 20.993C13.032 20.993 12.7497 20.9837 12.423 20.965C12.129 20.951 11.863 20.9207 11.625 20.874C11.415 20.832 11.2097 20.7737 11.009 20.699C10.617 20.5497 10.2717 20.3257 9.973 20.027C9.67433 19.7283 9.45033 19.383 9.301 18.991C9.22633 18.795 9.168 18.5897 9.126 18.375C9.07933 18.137 9.049 17.871 9.035 17.577C9.01633 17.2363 9.007 16.954 9.007 16.73C9.00233 16.436 9 15.9157 9 15.169C9 14.4037 9.00233 13.8833 9.007 13.608C9.007 13.37 9.01633 13.0877 9.035 12.761C9.049 12.467 9.07933 12.201 9.126 11.963C9.168 11.7483 9.22633 11.543 9.301 11.347C9.45033 10.955 9.67433 10.6097 9.973 10.311C10.2717 10.0123 10.617 9.78833 11.009 9.639C11.205 9.56433 11.4103 9.506 11.625 9.464C11.863 9.41733 12.129 9.387 12.423 9.373C12.7637 9.35433 13.046 9.345 13.27 9.345C13.564 9.34033 14.0843 9.338 14.831 9.338Z" fill="#ADD7A5"/>
</g>
<defs>
<clipPath id="clip0_23_1755">
<rect width="11.662" height="13.662" fill="white" transform="matrix(1 0 0 -1 9 22)"/>
</clipPath>
</defs>
</svg>
