<svg width="31" height="30" viewBox="0 0 31 30" fill="none" xmlns="http://www.w3.org/2000/svg">
<rect x="0.719727" y="0.5" width="29" height="29" rx="14.5" stroke="#0976B4"/>
<g clip-path="url(#clip0_23_1758)">
<path d="M12.331 11.169C12.331 11.3743 12.2797 11.568 12.177 11.75C12.0743 11.932 11.932 12.0743 11.75 12.177C11.568 12.2797 11.3732 12.331 11.1655 12.331C10.9578 12.331 10.7642 12.2797 10.5845 12.177C10.4048 12.0743 10.2625 11.932 10.1575 11.75C10.0525 11.568 10 11.372 10 11.162C10 10.952 10.0525 10.7583 10.1575 10.581C10.2625 10.4037 10.4037 10.2625 10.581 10.1575C10.7583 10.0525 10.9532 10 11.1655 10C11.3778 10 11.5738 10.0525 11.7535 10.1575C11.9332 10.2625 12.0743 10.4037 12.177 10.581C12.2797 10.7583 12.331 10.9543 12.331 11.169ZM12.366 13.199H10.035V20.5H12.366V13.199ZM16.055 13.199H13.731V20.5H16.034V16.664C16.034 16.258 16.1297 15.9103 16.321 15.621C16.4937 15.3597 16.7212 15.1777 17.0035 15.075C17.2858 14.9723 17.5623 14.963 17.833 15.047C18.1223 15.131 18.3533 15.3037 18.526 15.565C18.7173 15.859 18.813 16.2277 18.813 16.671V20.5H21.116V15.873C21.116 15.1917 20.9713 14.6153 20.682 14.144C20.4253 13.7287 20.066 13.4183 19.604 13.213C19.1887 13.0263 18.7337 12.947 18.239 12.975C17.763 12.9983 17.3267 13.1173 16.93 13.332C16.5193 13.5467 16.2207 13.829 16.034 14.179L16.055 13.199Z" fill="#0976B4"/>
</g>
<defs>
<clipPath id="clip0_23_1758">
<rect width="11.116" height="14.5" fill="white" transform="matrix(1 0 0 -1 10 22.5)"/>
</clipPath>
</defs>
</svg>
