<svg width="10" height="15" viewBox="0 0 10 15" fill="none" xmlns="http://www.w3.org/2000/svg">
<path d="M5.00014 0.451172C2.48567 0.451172 0.447266 2.24977 0.447266 4.46842C0.449092 5.14957 0.647215 5.81921 0.831758 6.11672L5.00014 14.4487L8.98392 6.41426H8.98183C9.356 5.81883 9.55254 5.14926 9.55299 4.46842C9.55302 2.24977 7.51462 0.451172 5.00014 0.451172ZM5.00014 2.45977C5.29909 2.45977 5.59511 2.51172 5.8713 2.61267C6.14749 2.71361 6.39845 2.86157 6.60983 3.04809C6.82121 3.23461 6.98889 3.45604 7.10329 3.69974C7.21768 3.94344 7.27656 4.20464 7.27655 4.46842C7.27655 5.00113 7.03672 5.51202 6.60981 5.88871C6.1829 6.26539 5.60388 6.47701 5.00014 6.47701C4.3964 6.47701 3.81739 6.26539 3.39048 5.88871C2.96357 5.51202 2.72374 5.00113 2.72374 4.46842C2.72374 3.93571 2.96357 3.42481 3.39048 3.04813C3.81739 2.67144 4.3964 2.45982 5.00014 2.45982V2.45977Z" fill="#071A35"/>
</svg>
