<svg width="19" height="18" viewBox="0 0 19 18" fill="none" xmlns="http://www.w3.org/2000/svg">
<path d="M9.49984 9C9.93525 9 10.308 8.85313 10.6181 8.55938C10.9281 8.26563 11.0832 7.9125 11.0832 7.5C11.0832 7.0875 10.9281 6.73438 10.6181 6.44063C10.308 6.14688 9.93525 6 9.49984 6C9.06442 6 8.69168 6.14688 8.38161 6.44063C8.07154 6.73438 7.9165 7.0875 7.9165 7.5C7.9165 7.9125 8.07154 8.26563 8.38161 8.55938C8.69168 8.85313 9.06442 9 9.49984 9ZM9.49984 14.5125C11.1096 13.1125 12.3037 11.8406 13.0821 10.6969C13.8606 9.55313 14.2498 8.5375 14.2498 7.65C14.2498 6.2875 13.7913 5.17188 12.8743 4.30313C11.9573 3.43438 10.8325 3 9.49984 3C8.1672 3 7.04237 3.43438 6.12536 4.30313C5.20834 5.17188 4.74984 6.2875 4.74984 7.65C4.74984 8.5375 5.13907 9.55313 5.91755 10.6969C6.69602 11.8406 7.89011 13.1125 9.49984 14.5125ZM9.49984 16.5C7.37553 14.7875 5.7889 13.1969 4.73994 11.7281C3.69098 10.2594 3.1665 8.9 3.1665 7.65C3.1665 5.775 3.80314 4.28125 5.0764 3.16875C6.34966 2.05625 7.82414 1.5 9.49984 1.5C11.1755 1.5 12.65 2.05625 13.9233 3.16875C15.1965 4.28125 15.8332 5.775 15.8332 7.65C15.8332 8.9 15.3087 10.2594 14.2597 11.7281C13.2108 13.1969 11.6241 14.7875 9.49984 16.5Z" fill="black"/>
</svg>
