<svg width="31" height="30" viewBox="0 0 31 30" fill="none" xmlns="http://www.w3.org/2000/svg">
<rect x="0.719727" y="0.5" width="29" height="29" rx="14.5" stroke="#02ADED"/>
<g clip-path="url(#clip0_23_1761)">
<path d="M17.113 11.4523C16.8097 11.4523 16.5297 11.527 16.273 11.6763C16.0163 11.8257 15.8122 12.0275 15.6605 12.2818C15.5088 12.5362 15.4283 12.815 15.419 13.1183L15.405 14.0353C15.405 14.138 15.3653 14.2243 15.286 14.2943C15.2067 14.3643 15.1133 14.3923 15.006 14.3783L14.096 14.2523C12.9107 14.089 11.7627 13.5453 10.652 12.6213C10.4793 13.5733 10.5587 14.4017 10.89 15.1063C11.212 15.7923 11.7907 16.3967 12.626 16.9193L13.641 17.5563C13.6923 17.589 13.732 17.631 13.76 17.6823C13.788 17.7337 13.8032 17.7885 13.8055 17.8468C13.8078 17.9052 13.7962 17.96 13.7705 18.0113C13.7448 18.0627 13.7087 18.1047 13.662 18.1373L12.731 18.8163C13.305 18.8537 13.809 18.828 14.243 18.7393C15.1717 18.5573 15.9767 18.2073 16.658 17.6893C17.3533 17.162 17.8853 16.4877 18.254 15.6663C18.6367 14.8077 18.828 13.8207 18.828 12.7053C18.828 12.626 18.7907 12.521 18.716 12.3903C18.6367 12.241 18.5293 12.1033 18.394 11.9773C18.2307 11.8233 18.051 11.702 17.855 11.6133C17.6217 11.5107 17.3743 11.4593 17.113 11.4593V11.4523ZM14.257 13.0973C14.2617 12.7147 14.3398 12.3518 14.4915 12.0088C14.6432 11.6658 14.8532 11.3625 15.1215 11.0988C15.3898 10.8352 15.7002 10.6333 16.0525 10.4933C16.4048 10.3533 16.7688 10.2857 17.1445 10.2903C17.5202 10.295 17.8807 10.3697 18.226 10.5143C18.5713 10.659 18.877 10.8667 19.143 11.1373L19.339 11.1443C19.493 11.149 19.612 11.1467 19.696 11.1373C19.8407 11.1233 19.9853 11.0907 20.13 11.0393C20.3027 10.9787 20.494 10.8853 20.704 10.7593C20.6293 11.1327 20.5687 11.401 20.522 11.5643C20.466 11.793 20.3983 11.9913 20.319 12.1593C20.2397 12.3367 20.1323 12.5187 19.997 12.7053C19.997 14.1147 19.724 15.3537 19.178 16.4223C18.6973 17.379 18.0183 18.1607 17.141 18.7673C16.3523 19.3133 15.4633 19.6867 14.474 19.8873C13.8627 20.0087 13.1673 20.032 12.388 19.9573C11.6553 19.892 10.9763 19.7543 10.351 19.5443C9.71167 19.3297 9.26133 19.0847 9 18.8093C9.42467 18.7767 9.85633 18.709 10.295 18.6063C11.0277 18.4383 11.597 18.205 12.003 17.9063L11.926 17.8573C11.6273 17.6613 11.38 17.484 11.184 17.3253C10.8387 17.0407 10.5447 16.7303 10.302 16.3943C9.98467 15.965 9.749 15.4983 9.595 14.9943C9.41767 14.3877 9.35933 13.732 9.42 13.0273C9.49 12.22 9.71633 11.352 10.099 10.4233C11.0883 11.5807 12.0893 12.367 13.102 12.7823C13.368 12.8897 13.585 12.9667 13.753 13.0133C13.8557 13.0367 13.9863 13.06 14.145 13.0833L14.257 13.0973Z" fill="#02ADED"/>
</g>
<defs>
<clipPath id="clip0_23_1761">
<rect width="11.704" height="13.7099" fill="white" transform="matrix(1 0 0 -1 9 22)"/>
</clipPath>
</defs>
</svg>
