<svg width="24" height="23" viewBox="0 0 24 23" fill="none" xmlns="http://www.w3.org/2000/svg">
<path d="M9 2.875H4C3.44772 2.875 3 3.30406 3 3.83333V8.625C3 9.15427 3.44772 9.58333 4 9.58333H9C9.55228 9.58333 10 9.15427 10 8.625V3.83333C10 3.30406 9.55228 2.875 9 2.875Z" stroke="white" stroke-width="2" stroke-linecap="round" stroke-linejoin="round"/>
<path d="M9 13.4167H4C3.44772 13.4167 3 13.8457 3 14.375V19.1667C3 19.6959 3.44772 20.125 4 20.125H9C9.55228 20.125 10 19.6959 10 19.1667V14.375C10 13.8457 9.55228 13.4167 9 13.4167Z" stroke="white" stroke-width="2" stroke-linecap="round" stroke-linejoin="round"/>
<path d="M14 3.83333H21M14 8.62499H21M14 14.375H21M14 19.1667H21" stroke="white" stroke-width="2" stroke-linecap="round" stroke-linejoin="round"/>
</svg>
